<?xml version="1.0" encoding="UTF-8" standalone="no"?>
<svg width="90px" height="90px" viewBox="0 0 90 90" version="1.1" xmlns="http://www.w3.org/2000/svg" xmlns:xlink="http://www.w3.org/1999/xlink" xmlns:sketch="http://www.bohemiancoding.com/sketch/ns">
    <!-- Generator: Sketch 3.2.2 (9983) - http://www.bohemiancoding.com/sketch -->
    <title>Gavel cutout icon + Cross Out</title>
    <desc>Created with Sketch.</desc>
    <defs>
        <filter x="-50%" y="-50%" width="200%" height="200%" filterUnits="objectBoundingBox" id="filter-1">
            <feOffset dx="0" dy="1" in="SourceAlpha" result="shadowOffsetOuter1"></feOffset>
            <feGaussianBlur stdDeviation="1" in="shadowOffsetOuter1" result="shadowBlurOuter1"></feGaussianBlur>
            <feColorMatrix values="0 0 0 0 0   0 0 0 0 0   0 0 0 0 0  0 0 0 0.35 0" in="shadowBlurOuter1" type="matrix" result="shadowMatrixOuter1"></feColorMatrix>
            <feMerge>
                <feMergeNode in="shadowMatrixOuter1"></feMergeNode>
                <feMergeNode in="SourceGraphic"></feMergeNode>
            </feMerge>
        </filter>
        <circle id="path-2" cx="43" cy="43" r="43"></circle>
    </defs>
    <g id="Home" stroke="none" stroke-width="1" fill="none" fill-rule="evenodd" sketch:type="MSPage">
        <g id="Desktop" sketch:type="MSArtboardGroup" transform="translate(-467.000000, -144.000000)">
            <g id="header" sketch:type="MSLayerGroup">
                <g id="Gavel-cutout-icon-+-Cross-Out" transform="translate(467.000000, 144.000000)">
                    <path d="M45,87 C68.7482442,87 88,67.7482442 88,44 C88,20.2517558 68.7482442,1 45,1 C21.2517558,1 2,20.2517558 2,44 C2,67.7482442 21.2517558,87 45,87 Z M33.2857576,28.6493886 L47.0913636,37.4459862 C48.1924242,37.9534822 49.4628788,37.6151515 50.1404545,36.6001595 L50.8180303,35.5851675 C51.4956061,34.4855928 51.1568182,33.0476874 50.0557576,32.2864434 L36.6736364,23.7435938 C35.5725758,23.0669325 34.1327273,23.4052632 33.3704545,24.5048379 L32.6928788,25.5198299 C32.1,26.6194046 32.3540909,27.9727273 33.2857576,28.6493886 Z M70.6371212,62.0595428 L70.6371212,61.8903775 C70.6371212,61.7212121 70.6371212,61.6366295 70.5524242,61.5520468 C70.4677273,61.0445508 70.3830303,60.6216374 70.2136364,60.2833068 C69.9595455,59.5220627 69.5360606,58.9299841 69.0278788,58.5070707 C68.9431818,58.422488 68.7737879,58.3379054 68.6890909,58.16874 L68.2656061,57.914992 C68.0115152,57.7458267 67.7574242,57.5766614 67.5033333,57.3229133 C67.2492424,57.153748 66.9951515,56.9845827 66.7410606,56.7308347 C66.4869697,56.5616693 66.2328788,56.392504 65.9787879,56.2233386 C65.4706061,55.885008 64.8777273,55.4620946 64.3695455,55.123764 L63.6072727,54.6162679 L62.760303,54.1087719 C62.2521212,53.7704413 61.6592424,53.4321106 61.1510606,53.0937799 C60.6428788,52.7554492 60.05,52.4171186 59.5418182,52.0787879 L57.9325758,51.0637959 L56.2386364,50.1333865 L54.544697,49.2029771 L52.8507576,48.2725678 L51.1568182,47.3421584 L49.4628788,46.4117491 C48.87,46.0734184 48.3618182,45.8196704 47.7689394,45.4813397 C47.1760606,45.143009 46.6678788,44.889261 46.075,44.5509304 L45.5668182,45.396757 L42.9412121,44.128017 L45.9056061,39.5605529 L32.015303,30.6793727 L24.8160606,42.0134503 L38.6216667,50.8100478 L41.5860606,46.2425837 L43.7881818,48.1034024 L43.28,48.9492291 C43.7881818,49.3721425 44.2963636,49.7104732 44.8045455,50.1333865 C45.3127273,50.5562998 45.8209091,50.8946305 46.3290909,51.3175439 L47.8536364,52.5017012 L49.3781818,53.6012759 L50.9874242,54.7008506 L52.5966667,55.8004253 L54.2059091,56.9 L55.8151515,57.9995747 C56.3233333,58.3379054 56.9162121,58.676236 57.4243939,59.0145667 C57.9325758,59.3528974 58.5254545,59.6912281 59.0336364,60.0295587 L59.8806061,60.5370548 L60.7275758,61.0445508 C61.2357576,61.3828814 61.8286364,61.7212121 62.4215152,62.0595428 C62.6756061,62.2287081 63.0143939,62.3978735 63.2684848,62.5670388 C63.5225758,62.7362041 63.8613636,62.9053695 64.1154545,63.0745348 C64.3695455,63.2437002 64.7083333,63.4128655 64.9624242,63.4974482 L65.3859091,63.7511962 C65.555303,63.8357788 65.64,63.9203615 65.8093939,64.0049442 C66.4022727,64.2586922 67.0798485,64.3432749 67.9268182,64.3432749 C68.350303,64.3432749 68.7737879,64.2586922 69.1972727,64.0895268 C69.2819697,64.0895268 69.4513636,64.0049442 69.5360606,64.0049442 L69.7054545,63.9203615 L69.8748485,63.8357788 C70.1289394,63.7511962 70.3830303,63.5820308 70.7218182,63.4128655 C70.6371212,62.8207868 70.6371212,62.4824561 70.6371212,62.2287081 L70.6371212,62.0595428 Z M20.4965152,49.2029771 L33.9633333,57.7458267 C35.0643939,58.422488 36.5042424,58.0841574 37.2665152,56.9845827 L37.9440909,55.9695906 C38.6216667,54.9545986 38.3675758,53.6012759 37.4359091,52.8400319 L23.5456061,44.0434343 C22.4445455,43.5359383 21.1740909,43.874269 20.4965152,44.889261 L19.8189394,45.9042531 C19.0566667,47.0038278 19.3954545,48.4417331 20.4965152,49.2029771 Z" id="Gavel-cutout-icon" fill-opacity="0.815641984" fill="#FFFFFF" filter="url(#filter-1)" sketch:type="MSShapeGroup"></path>
                    <g id="Cross-Out" transform="translate(2.000000, 1.000000)">
                        <mask id="mask-3" sketch:name="Mask" fill="white">
                            <use xlink:href="#path-2"></use>
                        </mask>
                        <use id="Mask" sketch:type="MSShapeGroup" xlink:href="#path-2"></use>
                        <path d="M0.325757576,0.325757576 L86.3257576,90.2348485" id="Line" stroke="#990808" stroke-width="7" stroke-linecap="square" sketch:type="MSShapeGroup" mask="url(#mask-3)"></path>
                        <path d="M0.325757576,0.325757576 L86.3257576,90.2348485" id="Line-2" stroke="#990808" stroke-width="7" stroke-linecap="square" sketch:type="MSShapeGroup" mask="url(#mask-3)">
                            <g transform="translate(43.325758, 45.280303) scale(-1, 1) translate(-43.325758, -45.280303) "></g>
                        </path>
                    </g>
                </g>
            </g>
        </g>
    </g>
</svg>